# xmcd
#
# Track frame offsets:
#	150
#	10997
#	22553
#	35767
#	48856
#	61728
#	74632
#	87983
#	100737
#	113635
#	129136
#	146902
#	158515
#	169058
#
# Disc length: 2391 seconds
#
# Revision: 1
# Processed by: cddbd v1.5.2PL0 Copyright (c) Steve Scherf et al.
# Submitted via: EasyCDDAExtractor 11.9.9.666
#
DISCID=aa09550e
DTITLE=Gary Waldrep Band - It Ain't On The Mountain
DYEAR=2019
DGENRE=Independant
TTITLE0=Roll On Highway
TTITLE1=Little Mountain Girl
TTITLE2=Crazy Dreams
TTITLE3=It Ain't On The Mountain
TTITLE4=Heaven Heavy On My Mind
TTITLE5=Tomorrow I'll Be Gone
TTITLE6=Missing You This Way
TTITLE7=They're Having A Big Revival
TTITLE8=Ten Dollar Bill
TTITLE9=Someone Is Looking For Someone Like You
TTITLE10=Tennessee Rose
TTITLE11=You Were There
TTITLE12=City Of Gold
TTITLE13=I'm Goin' Down To The Ballroom
EXTD=
EXTT0=
EXTT1=
EXTT2=
EXTT3=
EXTT4=
EXTT5=
EXTT6=
EXTT7=
EXTT8=
EXTT9=
EXTT10=
EXTT11=
EXTT12=
EXTT13=
PLAYORDER=
